<svg width="16" height="16" viewBox="0 0 16 16" fill="none" xmlns="http://www.w3.org/2000/svg">
<path d="M12.3244 15.7511C12.175 15.7507 12.026 15.7343 11.88 15.7022C9.1007 15.1273 6.54025 13.7793 4.49331 11.8133C2.49005 9.84306 1.10069 7.33448 0.493311 4.5911C0.421694 4.2492 0.439271 3.89461 0.544353 3.56147C0.649434 3.22832 0.838483 2.92782 1.09331 2.68888L2.87109 0.97777C2.96189 0.891898 3.06978 0.826139 3.18772 0.784784C3.30566 0.74343 3.43099 0.72741 3.55553 0.73777C3.68467 0.751243 3.80929 0.792843 3.92063 0.859645C4.03197 0.926447 4.12732 1.01683 4.19998 1.12444L6.4222 4.40888C6.50553 4.53632 6.54576 4.68715 6.53696 4.83916C6.52816 4.99118 6.4708 5.13635 6.37331 5.25333L5.25776 6.58666C5.70204 7.56997 6.33124 8.45869 7.11109 9.20444C7.88589 9.97723 8.80168 10.5943 9.80887 11.0222L11.1911 9.92444C11.3072 9.83269 11.4484 9.77845 11.5961 9.76892C11.7438 9.75939 11.8908 9.79503 12.0178 9.8711L15.3733 12.04C15.4885 12.1087 15.5866 12.2027 15.6603 12.3147C15.734 12.4268 15.7814 12.554 15.7989 12.687C15.8164 12.82 15.8036 12.9552 15.7615 13.0825C15.7193 13.2098 15.6489 13.326 15.5555 13.4222L13.8222 15.1378C13.6253 15.3337 13.3916 15.4888 13.1346 15.594C12.8775 15.6993 12.6022 15.7527 12.3244 15.7511ZM3.48442 1.61777L1.70664 3.32888C1.56329 3.46246 1.45717 3.63105 1.39873 3.81807C1.34028 4.0051 1.33152 4.20411 1.37331 4.39555C1.93808 6.96983 3.2363 9.32546 5.11109 11.1778C7.0374 13.0273 9.44692 14.2953 12.0622 14.8355C12.2602 14.8769 12.4653 14.8686 12.6592 14.8111C12.8531 14.7537 13.0298 14.6491 13.1733 14.5067L14.9066 12.7911L11.6666 10.6978L10.1822 11.88C10.1254 11.925 10.0584 11.9554 9.98714 11.9685C9.91587 11.9817 9.84246 11.9772 9.77331 11.9555C8.54073 11.5014 7.42374 10.7805 6.5022 9.84444C5.54902 8.95431 4.80914 7.86044 4.33776 6.64444C4.31781 6.57082 4.31715 6.49331 4.33583 6.41937C4.35451 6.34542 4.39191 6.27753 4.44442 6.22221L5.64442 4.78666L3.48442 1.61777Z" fill="black"/>
</svg>
