<svg width="18" height="20" viewBox="0 0 18 20" fill="none" xmlns="http://www.w3.org/2000/svg">
<path d="M11 3.25V2.5C11 1.90326 10.7629 1.33097 10.341 0.90901C9.91903 0.487053 9.34674 0.25 8.75 0.25H2.25C1.65326 0.25 1.08097 0.487053 0.65901 0.90901C0.237053 1.33097 0 1.90326 0 2.5V19C0 19.414 0.336 19.75 0.75 19.75H17.25C17.4489 19.75 17.6397 19.671 17.7803 19.5303C17.921 19.3897 18 19.1989 18 19V5.5C18 4.90326 17.7629 4.33097 17.341 3.90901C16.919 3.48705 16.3467 3.25 15.75 3.25H11ZM1.5 2.5C1.5 2.30109 1.57902 2.11032 1.71967 1.96967C1.86032 1.82902 2.05109 1.75 2.25 1.75H8.75C8.94891 1.75 9.13968 1.82902 9.28033 1.96967C9.42098 2.11032 9.5 2.30109 9.5 2.5V3.25H9.25C8.65326 3.25 8.08097 3.48705 7.65901 3.90901C7.23705 4.33097 7 4.90326 7 5.5V18.25H1.5V2.5ZM11.5 18.25V16.75H13.5V18.25H11.5ZM15 16C15 15.8011 14.921 15.6103 14.7803 15.4697C14.6397 15.329 14.4489 15.25 14.25 15.25H10.75C10.5511 15.25 10.3603 15.329 10.2197 15.4697C10.079 15.6103 10 15.8011 10 16V18.25H8.5V5.5C8.5 5.30109 8.57902 5.11032 8.71967 4.96967C8.86032 4.82902 9.05109 4.75 9.25 4.75H15.75C15.9489 4.75 16.1397 4.82902 16.2803 4.96967C16.421 5.11032 16.5 5.30109 16.5 5.5V18.25H15V16Z" fill="#304659"/>
</svg>
